<svg
    width="36"
    height="37"
    viewBox="0 0 36 37"
    fill="none"
    xmlns="http://www.w3.org/2000/svg"
    >
    <path
        d="M17.9986 11.8933C16.159 11.8933 14.3948 12.6241 13.0941 13.9248C11.7933 15.2256 11.0626 16.9898 11.0626 18.8293C11.0626 20.6689 11.7933 22.4331 13.0941 23.7338C14.3948 25.0346 16.159 25.7653 17.9986 25.7653C19.8381 25.7653 21.6023 25.0346 22.903 23.7338C24.2038 22.4331 24.9346 20.6689 24.9346 18.8293C24.9346 16.9898 24.2038 15.2256 22.903 13.9248C21.6023 12.6241 19.8381 11.8933 17.9986 11.8933ZM17.9986 23.3338C16.8035 23.3338 15.6574 22.8591 14.8123 22.014C13.9673 21.169 13.4926 20.0229 13.4926 18.8278C13.4926 17.6328 13.9673 16.4866 14.8123 15.6416C15.6574 14.7966 16.8035 14.3218 17.9986 14.3218C19.1936 14.3218 20.3397 14.7966 21.1848 15.6416C22.0298 16.4866 22.5046 17.6328 22.5046 18.8278C22.5046 20.0229 22.0298 21.169 21.1848 22.014C20.3397 22.8591 19.1936 23.3338 17.9986 23.3338Z"
        fill="black"
    />
    <path
        d="M25.2091 13.2553C26.1021 13.2553 26.8261 12.5314 26.8261 11.6383C26.8261 10.7453 26.1021 10.0213 25.2091 10.0213C24.316 10.0213 23.5921 10.7453 23.5921 11.6383C23.5921 12.5314 24.316 13.2553 25.2091 13.2553Z"
        fill="black"
    />
    <path
        d="M30.7996 9.99433C30.4523 9.0976 29.9216 8.28325 29.2416 7.60342C28.5615 6.92358 27.7469 6.39323 26.8501 6.04633C25.8006 5.65236 24.6918 5.43934 23.5711 5.41633C22.1266 5.35333 21.6691 5.33533 18.0061 5.33533C14.3431 5.33533 13.8736 5.33533 12.4411 5.41633C11.3211 5.43816 10.2132 5.65123 9.16505 6.04633C8.26796 6.39283 7.4532 6.92303 6.77305 7.60292C6.09291 8.28281 5.56239 9.09736 5.21555 9.99433C4.82151 11.0437 4.60897 12.1526 4.58705 13.2733C4.52255 14.7163 4.50305 15.1738 4.50305 18.8383C4.50305 22.5013 4.50305 22.9678 4.58705 24.4033C4.60955 25.5253 4.82105 26.6323 5.21555 27.6838C5.56337 28.5805 6.0944 29.3947 6.77471 30.0745C7.45502 30.7543 8.26965 31.2847 9.16655 31.6318C10.2127 32.0416 11.3211 32.2699 12.4441 32.3068C13.8886 32.3698 14.3461 32.3893 18.0091 32.3893C21.6721 32.3893 22.1416 32.3893 23.5741 32.3068C24.6947 32.284 25.8034 32.0715 26.8531 31.6783C27.7497 31.3306 28.564 30.7998 29.244 30.1198C29.924 29.4398 30.4548 28.6255 30.8026 27.7288C31.1971 26.6788 31.4086 25.5718 31.4311 24.4498C31.4956 23.0068 31.5151 22.5493 31.5151 18.8848C31.5151 15.2203 31.5151 14.7553 31.4311 13.3198C31.4136 12.1832 31.2 11.0582 30.7996 9.99433ZM28.9726 24.2923C28.9629 25.1568 28.8051 26.0132 28.5061 26.8243C28.2808 27.4076 27.9359 27.9373 27.4937 28.3793C27.0514 28.8214 26.5215 29.1659 25.9381 29.3908C25.1359 29.6885 24.2886 29.8463 23.4331 29.8573C22.0081 29.9233 21.6061 29.9398 17.9521 29.9398C14.2951 29.9398 13.9216 29.9398 12.4696 29.8573C11.6144 29.8469 10.7675 29.6891 9.96605 29.3908C9.38058 29.1673 8.84855 28.8234 8.40439 28.3813C7.96022 27.9392 7.6138 27.4087 7.38755 26.8243C7.09272 26.0219 6.93502 25.1756 6.92105 24.3208C6.85655 22.8958 6.84155 22.4938 6.84155 18.8398C6.84155 15.1843 6.84155 14.8108 6.92105 13.3573C6.93075 12.4934 7.08853 11.6375 7.38755 10.8268C7.84505 9.64333 8.78255 8.71183 9.96605 8.25883C10.7679 7.96204 11.6146 7.80427 12.4696 7.79233C13.8961 7.72783 14.2966 7.70983 17.9521 7.70983C21.6076 7.70983 21.9826 7.70983 23.4331 7.79233C24.2887 7.80262 25.1361 7.96043 25.9381 8.25883C26.5214 8.48424 27.0513 8.82913 27.4935 9.27137C27.9358 9.71361 28.2806 10.2434 28.5061 10.8268C28.8009 11.6293 28.9586 12.4756 28.9726 13.3303C29.0371 14.7568 29.0536 15.1573 29.0536 18.8128C29.0536 22.4668 29.0536 22.8598 28.9891 24.2938H28.9726V24.2923Z"
        fill="black"
    />
</svg>